<?xml version="1.0" standalone="no"?>
<!DOCTYPE svg PUBLIC "-//W3C//DTD SVG 20010904//EN"
 "http://www.w3.org/TR/2001/REC-SVG-20010904/DTD/svg10.dtd">
<svg version="1.0" xmlns="http://www.w3.org/2000/svg"
 width="432.000000pt" height="577.000000pt" viewBox="0 0 432.000000 577.000000"
 preserveAspectRatio="xMidYMid meet">

<g transform="translate(0.000000,577.000000) scale(0.100000,-0.100000)"
fill="#007788" stroke="none">
<path d="M2142 4108 c-6 -24 -14 -61 -17 -83 -9 -63 -22 -76 -36 -37 -6 18
-16 31 -22 29 -5 -1 -17 -27 -26 -57 -17 -58 -22 -57 -39 0 -17 58 -51 143
-61 153 -11 11 -25 -124 -18 -176 3 -21 2 -37 -2 -37 -4 0 -31 27 -61 60 -71
80 -80 78 -73 -10 4 -47 2 -70 -5 -70 -6 0 -32 27 -58 60 -26 33 -52 59 -58
57 -7 -2 -12 -45 -14 -110 -1 -59 -6 -107 -10 -107 -4 0 -28 20 -52 45 -24 24
-46 42 -50 40 -4 -3 -13 -33 -19 -67 -21 -107 -18 -104 -55 -69 -18 17 -36 31
-40 31 -5 0 -6 -25 -4 -55 3 -30 3 -55 2 -55 -1 0 -37 23 -78 50 -109 72 -119
67 -60 -33 29 -49 33 -62 21 -68 -9 -5 -12 -18 -9 -34 2 -14 1 -25 -3 -25 -4
0 -41 21 -82 46 -107 67 -109 55 -11 -78 28 -37 50 -70 51 -75 1 -4 -30 -6
-69 -5 -40 2 -74 -1 -78 -6 -3 -6 12 -32 34 -58 22 -27 36 -50 32 -52 -5 -1
-48 7 -96 18 -102 24 -106 24 -106 8 1 -7 38 -35 83 -63 82 -50 82 -50 47 -53
-64 -5 -66 -10 -25 -52 21 -22 36 -42 33 -45 -2 -3 -27 -1 -54 4 -151 28 -171
10 -53 -49 89 -45 90 -54 12 -66 -24 -3 -43 -12 -43 -18 0 -7 22 -23 50 -36
27 -13 48 -25 46 -28 -3 -2 -44 -14 -92 -26 -48 -12 -89 -27 -91 -32 -2 -6 35
-24 82 -39 48 -16 88 -32 91 -36 2 -4 -13 -17 -34 -30 l-37 -22 47 -21 c49
-22 61 -36 31 -36 -29 0 -145 -44 -147 -55 0 -5 38 -14 86 -20 47 -5 89 -13
92 -16 3 -3 -15 -20 -40 -38 -25 -18 -43 -38 -41 -44 2 -7 26 -16 54 -22 28
-5 54 -13 57 -16 3 -3 -30 -34 -74 -68 -72 -55 -95 -81 -72 -81 4 0 45 13 91
30 47 16 87 28 89 26 2 -3 -8 -25 -23 -50 -32 -54 -27 -68 18 -55 17 5 43 9
56 9 21 0 15 -10 -55 -82 -94 -97 -87 -105 42 -54 48 20 90 34 92 31 3 -2 -1
-18 -8 -35 -16 -39 -8 -47 32 -32 18 6 33 10 35 8 3 -2 -16 -45 -41 -95 -25
-50 -46 -93 -46 -96 0 -14 32 -1 113 46 l88 51 42 -34 c23 -19 59 -45 80 -57
48 -29 46 -30 120 109 31 58 82 153 114 212 l59 107 53 -24 c155 -72 324 -71
476 3 l39 20 49 -87 c26 -47 77 -140 112 -206 85 -160 86 -161 116 -145 13 7
50 32 82 57 l57 45 48 -28 c106 -61 141 -78 147 -72 3 3 -14 47 -39 97 -25 50
-46 93 -46 95 0 2 16 0 36 -6 20 -5 39 -7 42 -4 3 4 -2 22 -11 41 -9 19 -13
35 -9 35 5 0 47 -16 95 -35 86 -35 117 -42 117 -27 0 4 -31 39 -70 77 -38 38
-70 73 -70 78 0 5 24 6 55 2 30 -3 55 -3 55 2 0 4 -12 28 -25 52 -14 24 -24
45 -22 47 2 2 41 -10 88 -26 46 -16 87 -30 92 -30 22 0 -2 26 -73 81 -44 34
-77 65 -75 69 3 4 25 10 51 13 62 7 76 22 44 48 -14 11 -36 30 -50 42 l-25 22
98 9 c64 5 97 12 94 20 -2 6 -38 22 -80 37 -42 14 -79 28 -82 31 -3 2 13 11
35 18 23 8 43 17 46 21 2 4 -14 19 -37 32 l-41 25 96 32 c90 30 113 45 84 55
-7 2 -51 14 -97 26 l-85 22 52 26 c48 23 69 51 40 51 -7 0 -31 5 -52 11 l-40
11 25 19 c13 10 33 22 44 25 35 12 96 54 90 63 -5 9 -47 6 -137 -8 -27 -5 -48
-5 -48 0 0 5 13 24 30 42 16 19 27 37 23 41 -3 3 -25 6 -47 6 -39 1 -40 1 -21
16 11 9 48 32 83 52 34 20 62 42 62 49 0 17 -9 16 -117 -11 -51 -12 -93 -20
-93 -17 0 4 18 28 40 55 22 26 37 53 34 58 -4 6 -36 9 -80 6 -41 -3 -74 -3
-74 -1 0 2 29 42 65 90 58 77 77 113 59 113 -4 0 -40 -20 -81 -45 -40 -25 -76
-45 -79 -45 -3 0 -3 13 1 29 5 22 2 30 -10 33 -12 2 -8 16 25 72 22 37 40 70
40 72 0 19 -52 -8 -152 -77 -15 -11 -29 -19 -31 -19 -2 0 -2 25 1 55 2 30 1
55 -4 55 -4 0 -22 -14 -40 -31 l-32 -31 -11 52 c-6 28 -11 55 -11 60 0 5 -5
21 -10 36 l-11 27 -54 -53 -55 -54 0 111 c0 71 -4 114 -11 119 -12 7 -35 -15
-82 -78 -15 -21 -31 -38 -35 -38 -4 0 -6 32 -4 70 3 58 1 70 -11 70 -14 0 -97
-88 -105 -111 -2 -5 -8 -9 -12 -9 -5 0 -11 48 -12 108 -2 61 -7 107 -13 107
-5 0 -25 -44 -45 -97 -19 -53 -38 -99 -41 -102 -3 -4 -12 15 -19 41 -18 65
-25 71 -45 33 -20 -39 -31 -28 -41 40 -9 67 -24 120 -33 120 -5 0 -13 -19 -19
-42z m52 -182 l7 -36 -41 0 c-22 0 -40 4 -40 9 0 17 31 145 38 156 6 9 19 -37
36 -129z m-213 24 c15 -38 24 -72 21 -75 -12 -11 -50 -4 -56 11 -9 23 -7 134
2 134 4 0 19 -31 33 -70z m399 -5 l0 -75 -30 0 c-16 0 -30 4 -30 10 0 22 43
140 51 140 5 0 9 -34 9 -75z m-470 -81 c0 -6 -12 -14 -27 -18 -16 -3 -38 -8
-50 -12 -22 -6 -23 -4 -23 67 l0 73 50 -49 c28 -27 50 -54 50 -61z m602 35
c-3 -54 -7 -69 -17 -65 -8 3 -30 8 -49 12 -20 3 -36 9 -36 13 0 10 91 111 99
111 3 0 4 -32 3 -71z m-424 36 c18 -40 15 -55 -13 -55 -27 0 -28 2 -19 49 8
38 17 39 32 6z m176 3 c11 -41 7 -58 -13 -58 -28 0 -35 17 -21 51 15 35 26 37
34 7z m-515 -63 l41 -50 -52 -27 c-29 -15 -56 -27 -60 -28 -10 0 -10 71 -2
134 8 53 5 54 73 -29z m900 -42 c0 -35 -1 -63 -4 -63 -14 0 -105 51 -105 59 0
5 21 35 48 66 l47 58 6 -29 c4 -16 7 -57 8 -91z m-301 12 c354 -69 641 -302
771 -627 142 -354 85 -735 -155 -1038 -59 -76 -142 -153 -210 -198 -47 -32
-47 -32 -62 -11 -8 11 -12 22 -11 23 2 2 26 18 53 36 167 113 319 335 376 550
34 128 39 315 11 440 -27 126 -33 143 -71 225 -90 190 -259 364 -445 457 -326
164 -708 136 -1010 -73 -78 -53 -193 -169 -246 -246 -47 -68 -117 -221 -139
-308 -28 -104 -37 -272 -20 -383 14 -102 60 -244 103 -322 72 -132 192 -271
295 -340 28 -19 52 -38 52 -41 0 -3 -6 -13 -13 -22 -11 -17 -16 -16 -59 13
-125 83 -260 241 -337 397 -70 140 -117 363 -106 498 13 150 50 294 108 415
30 63 122 191 184 256 77 81 206 173 303 216 36 16 72 33 81 38 13 6 132 36
214 54 51 10 262 5 333 -9z m-728 -80 c11 -13 10 -18 -6 -30 -10 -8 -22 -15
-26 -15 -13 0 -50 71 -44 86 5 13 10 13 34 -5 16 -11 35 -27 42 -36z m1160 27
c0 -9 -11 -30 -24 -47 l-24 -30 -22 20 -22 20 38 32 c40 33 54 34 54 5z m-654
-89 c-3 -42 -6 -125 -6 -185 0 -100 -1 -108 -20 -108 -23 0 -26 15 -40 194
-15 190 -17 176 31 176 l42 0 -7 -77z m56 -100 c2 -98 2 -181 1 -185 -2 -3
-12 -4 -23 -1 -20 5 -20 13 -20 184 1 168 3 179 20 179 17 0 19 -12 22 -177z
m84 87 c-3 -49 -9 -131 -13 -181 -4 -64 -10 -92 -20 -96 -8 -3 -18 -2 -22 3
-5 5 -11 89 -14 187 l-7 177 42 0 41 0 -7 -90z m-233 3 c4 -43 9 -121 12 -173
5 -93 5 -94 -9 -50 -22 71 -58 221 -63 263 -5 35 -4 37 25 37 l29 0 6 -77z
m317 55 c0 -13 -19 -93 -40 -178 l-40 -155 5 85 c2 47 8 127 11 178 l7 92 28
0 c23 0 29 -4 29 -22z m-401 -20 c5 -18 24 -91 41 -163 17 -71 34 -138 36
-147 3 -11 0 -18 -8 -18 -13 0 -155 326 -147 335 6 5 51 23 61 24 3 1 11 -14
17 -31z m470 21 c17 -6 31 -14 31 -17 1 -20 -137 -332 -146 -332 -9 0 29 201
50 260 3 8 10 34 16 58 6 23 12 42 14 42 2 0 17 -5 35 -11z m-865 -25 c10 -25
7 -34 -9 -34 -9 0 -15 9 -15 25 0 28 15 34 24 9z m1238 -9 c3 -14 2 -28 -2
-30 -13 -8 -31 21 -24 39 9 24 21 20 26 -9z m-875 -155 c68 -163 70 -171 51
-181 -11 -6 -21 -9 -24 -7 -8 9 -154 323 -154 333 0 5 37 23 51 24 3 1 38 -76
76 -169z m598 156 c17 -12 14 -22 -60 -180 -43 -91 -80 -166 -82 -166 -2 0
-13 4 -23 10 -17 9 -16 15 22 102 22 51 54 128 72 170 17 43 36 78 42 78 5 0
19 -6 29 -14z m-1029 -71 c-21 -22 -25 -17 -33 31 l-5 39 27 -27 c26 -25 27
-27 11 -43z m1380 -2 c-6 -14 -9 -14 -26 2 -20 18 -20 18 2 43 l23 24 3 -27
c2 -15 1 -34 -2 -42z m-1483 4 l58 -40 -27 -28 -28 -29 -43 68 c-62 98 -62 98
40 29z m420 -24 c66 -144 117 -255 117 -259 0 -23 -34 21 -114 149 l-97 152
22 18 c12 9 24 17 28 17 4 0 24 -35 44 -77z m786 60 l21 -18 -90 -145 c-96
-153 -106 -167 -115 -158 -7 6 146 338 156 338 4 0 16 -8 28 -17z m403 -42
c-20 -32 -41 -66 -47 -75 -9 -16 -13 -14 -39 12 l-28 30 68 46 c38 25 72 46
76 46 4 0 -9 -26 -30 -59z m-1203 -141 c86 -136 102 -170 83 -170 -13 0 -30
21 -136 165 l-95 130 21 18 c12 10 25 14 29 10 4 -4 49 -73 98 -153z m885 132
c3 -5 -26 -49 -63 -98 -56 -76 -108 -146 -143 -198 -5 -8 -11 -7 -19 1 -13 13
-9 22 69 143 114 178 115 179 133 169 10 -5 20 -13 23 -17z m-968 -129 c48
-65 98 -133 111 -151 23 -30 24 -52 3 -52 -9 0 -47 39 -195 199 l-68 73 29 24
c16 13 30 23 31 24 2 0 42 -53 89 -117z m1054 68 c0 -2 -28 -34 -62 -70 -35
-37 -91 -97 -125 -134 -34 -37 -66 -67 -72 -67 -29 0 -13 31 75 152 134 184
120 171 155 146 16 -12 29 -24 29 -27z m-1482 -50 c52 -33 53 -34 35 -55 -10
-11 -19 -23 -21 -25 -3 -6 -59 61 -86 101 -18 27 -18 28 0 20 11 -4 43 -22 72
-41z m70 37 c14 -14 16 -38 4 -38 -5 0 -14 11 -20 25 -12 26 -4 33 16 13z
m1640 -13 c-12 -27 -28 -34 -28 -12 0 14 20 37 32 37 4 0 2 -11 -4 -25z m106
-32 c-21 -26 -44 -54 -51 -62 -10 -14 -13 -14 -27 4 -8 11 -16 23 -16 28 0 10
122 89 128 82 3 -2 -13 -26 -34 -52z m-1371 -148 c37 -38 67 -75 67 -81 0 -6
-7 -18 -16 -25 -14 -11 -32 4 -145 119 -71 72 -129 135 -129 140 0 5 10 16 21
24 20 13 25 10 78 -47 32 -33 87 -91 124 -130z m1095 154 c1 -8 -56 -72 -128
-144 -120 -120 -131 -129 -146 -113 -22 21 -19 24 116 171 105 113 117 123
135 112 11 -7 21 -19 23 -26z m-1203 -155 c66 -69 121 -130 123 -135 2 -5 -4
-12 -13 -15 -11 -4 -28 7 -53 34 -20 22 -76 81 -124 131 -49 49 -88 95 -88
101 0 33 49 -4 155 -116z m1243 112 c-2 -8 -58 -71 -126 -141 -85 -89 -127
-125 -138 -121 -9 3 -14 10 -12 15 2 5 56 66 122 135 73 78 126 126 138 126
11 0 18 -6 16 -14z m-1297 -144 c148 -152 156 -163 99 -127 -25 15 -56 37 -70
50 -14 12 -62 48 -107 79 -46 32 -83 62 -83 68 0 13 29 48 40 48 4 0 58 -53
121 -118z m1341 101 c10 -9 18 -22 18 -29 0 -7 -53 -50 -117 -96 -140 -99
-177 -123 -167 -107 10 17 236 249 242 249 3 0 14 -7 24 -17z m268 -36 c0 -7
-14 -30 -31 -50 l-32 -38 -23 41 c-13 23 -24 44 -24 45 0 2 24 6 53 8 28 2 53
4 55 5 1 1 2 -4 2 -11z m-1910 -2 c0 -2 -10 -23 -22 -46 l-21 -41 -33 38 c-18
22 -33 42 -34 47 0 4 25 7 55 7 30 0 55 -2 55 -5z m1004 -20 c75 -16 176 -59
216 -93 l25 -21 -56 -1 c-135 0 -274 -77 -333 -182 -17 -30 -15 -29 34 17 40
38 51 45 46 28 -3 -13 -9 -33 -12 -45 -3 -13 9 0 29 27 19 28 43 57 53 65 16
14 17 13 10 -5 -15 -38 -26 -79 -22 -83 3 -2 12 11 22 30 22 43 64 98 75 98 4
0 -1 -20 -12 -45 -25 -56 -19 -83 7 -36 11 18 29 45 42 60 l23 26 -5 -25 c-3
-14 -9 -36 -12 -50 -4 -17 5 -9 31 28 21 28 42 52 46 52 11 0 11 -1 -2 -39 -8
-21 -30 -45 -68 -70 -103 -71 -175 -174 -188 -272 -8 -54 2 -49 22 12 18 53
33 52 36 -1 1 -23 1 -23 9 5 4 17 11 47 14 68 9 49 26 48 26 -3 0 -22 5 -40
10 -40 6 0 10 14 10 31 0 41 20 119 31 119 5 0 9 -25 9 -56 0 -75 16 -60 23
22 6 84 27 111 27 36 0 -29 5 -52 10 -52 6 0 10 16 10 35 0 20 8 50 17 68 l17
32 7 -60 c4 -33 3 -71 -3 -85 -14 -38 -11 -140 7 -185 l15 -40 -5 55 -5 55 17
-27 c28 -44 33 -33 12 23 -24 61 -19 72 11 29 12 -17 24 -29 26 -27 2 2 -5 27
-16 55 -27 71 -25 84 6 39 14 -21 28 -37 30 -34 3 2 -4 28 -16 56 -22 58 -23
61 -12 61 4 0 15 -14 25 -31 24 -42 32 -31 13 16 -25 58 -20 75 10 40 l25 -30
-6 45 c-5 41 -5 43 9 26 8 -10 25 -51 37 -90 26 -80 30 -211 10 -283 l-12 -43
-508 0 -509 0 -12 48 c-19 78 -15 229 10 287 54 131 121 218 214 280 65 43
114 64 191 80 80 18 126 18 209 0z m-836 -27 c26 -18 52 -37 59 -43 6 -5 34
-26 62 -45 114 -78 146 -105 130 -108 -15 -3 -314 152 -324 168 -5 8 14 60 22
60 3 0 25 -14 51 -32z m1535 3 l17 -28 -161 -87 c-191 -102 -244 -116 -124
-31 15 11 62 45 104 76 121 88 136 98 141 99 3 0 13 -13 23 -29z m-1816 -63
c49 -10 52 -12 41 -32 -6 -11 -12 -22 -13 -24 -3 -3 -70 39 -100 63 l-20 16
20 -6 c11 -4 43 -11 72 -17z m2113 17 c0 -2 -25 -21 -56 -40 -44 -29 -59 -34
-65 -23 -17 26 -8 36 49 50 71 19 72 19 72 13z m-1892 -23 c47 -23 296 -154
301 -159 3 -2 -2 -10 -10 -19 -14 -13 -23 -11 -90 17 -41 17 -101 43 -134 59
-33 15 -77 33 -97 41 -42 14 -43 17 -26 54 13 30 10 29 56 7z m1640 -7 c17
-37 16 -40 -25 -54 -21 -8 -65 -26 -98 -41 -84 -39 -206 -90 -215 -90 -4 0
-10 8 -12 18 -4 15 12 27 76 61 44 23 119 62 166 86 47 25 88 45 91 45 3 0 11
-11 17 -25z m-1662 -79 c52 -25 247 -109 277 -119 18 -7 21 -15 9 -34 -5 -8
-57 7 -185 54 -179 67 -197 79 -165 111 15 15 5 16 64 -12z m1190 8 c-3 -9 -6
-20 -6 -24 0 -11 -40 -34 -47 -27 -6 7 38 67 50 67 5 0 6 -7 3 -16z m508 0
c13 -35 2 -43 -126 -89 -73 -26 -152 -56 -175 -66 -42 -17 -43 -17 -53 2 -9
16 -7 21 12 28 56 21 199 82 258 110 77 36 76 35 84 15z m-1884 -21 c0 -10 -5
-25 -10 -33 -7 -12 -13 -11 -34 10 -35 32 -33 40 9 40 27 0 35 -4 35 -17z
m2070 9 c0 -11 -49 -57 -54 -51 -2 2 -7 16 -11 32 -7 26 -5 27 29 27 20 0 36
-4 36 -8z m-1865 -86 c33 -13 92 -35 130 -50 39 -14 83 -30 98 -36 50 -18 19
-28 -45 -14 -184 41 -294 68 -301 74 -4 4 -5 19 -1 34 8 32 19 31 119 -8z
m1161 -38 c-20 -28 -22 -6 -4 43 l13 34 3 -27 c2 -15 -4 -38 -12 -50z m548 56
c16 -43 8 -51 -71 -67 -43 -9 -120 -26 -172 -37 -130 -28 -172 -25 -88 6 17 6
93 35 167 62 74 28 140 51 146 51 7 1 15 -6 18 -15z m-1951 -31 c12 -7 8 -43
-5 -43 -7 1 -38 14 -68 31 l-55 29 60 -6 c33 -4 63 -8 68 -11z m2197 13 c0 -5
-109 -56 -121 -56 -6 0 -9 10 -7 23 2 16 12 24 38 28 43 8 90 10 90 5z m-1930
-85 c110 -23 211 -49 218 -55 2 -3 2 -12 -1 -20 -6 -16 -50 -15 -222 5 -172
19 -165 17 -165 53 0 55 -7 54 170 17z m1710 -11 c0 -36 -2 -39 -32 -44 -77
-11 -218 -26 -283 -28 -63 -3 -70 -1 -70 16 0 16 16 23 105 42 58 13 132 30
165 38 33 7 72 14 88 15 25 1 27 -2 27 -39z m-1988 -30 c-5 -35 -13 -37 -53
-13 -35 21 -37 30 -6 36 58 11 64 9 59 -23z m2147 24 c39 -8 39 -19 1 -39 -41
-21 -50 -19 -50 15 0 32 2 33 49 24z m-1944 -64 c50 -6 134 -15 188 -21 71 -8
97 -15 97 -25 0 -11 -35 -14 -194 -14 -107 0 -197 3 -199 8 -7 10 4 62 12 62
3 0 47 -5 96 -10z m1799 -15 c4 -14 4 -30 1 -35 -4 -6 -88 -10 -201 -10 -159
0 -194 3 -194 14 0 10 26 17 98 25 53 6 131 15 172 20 119 13 117 14 124 -14z
m-2014 -60 c0 -29 -4 -45 -12 -45 -17 0 -121 39 -132 50 -4 4 18 13 50 20 33
6 64 13 69 15 22 8 25 3 25 -40z m2218 25 c28 -7 52 -15 52 -19 0 -7 -119 -51
-139 -51 -6 0 -11 19 -11 46 0 43 2 46 23 40 12 -3 46 -10 75 -16z m-1718 -44
c0 -15 -118 -26 -292 -26 -101 0 -108 1 -108 20 0 19 7 20 200 20 161 0 200
-3 200 -14z m1518 -8 c-3 -21 -6 -21 -123 -19 -178 5 -268 14 -273 29 -3 9 41
12 198 12 201 0 201 0 198 -22z m-1518 -42 c0 -8 3 -21 6 -29 4 -11 -23 -21
-128 -45 -252 -57 -276 -60 -265 -29 3 10 52 23 185 47 34 7 62 16 62 22 0 5
-12 7 -27 4 -16 -3 -57 -10 -93 -16 -36 -5 -79 -14 -97 -19 -29 -9 -31 -7 -35
20 -3 17 0 33 5 36 11 7 188 19 310 21 60 2 77 -1 77 -12z m1488 -3 c32 -5 36
-12 26 -48 -5 -21 -6 -21 -87 -4 -126 25 -167 30 -167 21 0 -9 138 -41 213
-50 35 -4 50 -23 27 -37 -9 -6 -88 8 -235 41 -152 35 -145 32 -145 66 l0 31
168 -7 c92 -4 182 -10 200 -13z m-1978 -44 c0 -22 -8 -23 -47 -8 l-28 11 30
12 c35 15 45 12 45 -15z m2150 16 l25 -13 -28 -11 c-47 -18 -55 -13 -41 23 7
19 12 19 44 1z m-1643 -51 c2 -6 -67 -35 -154 -64 -87 -29 -170 -59 -185 -66
-15 -8 -29 -14 -32 -14 -9 0 -26 64 -19 71 5 3 55 17 113 29 58 13 139 31 180
40 80 19 92 19 97 4z m1158 1 c17 -3 48 -10 70 -15 203 -45 248 -56 252 -66 2
-6 -1 -23 -6 -37 -10 -24 -13 -26 -38 -16 -15 6 -96 34 -178 63 -83 28 -156
55 -163 60 -17 10 -4 28 16 22 10 -3 31 -8 47 -11z m-1661 -51 c14 -36 8 -40
-49 -34 -30 3 -57 9 -61 12 -3 4 16 13 43 21 63 19 60 19 67 1z m514 -1 c-2
-9 -30 -27 -68 -43 -36 -15 -114 -48 -175 -74 -60 -26 -115 -44 -122 -42 -23
9 -16 53 10 59 12 3 92 30 177 60 85 31 161 56 168 56 8 1 12 -6 10 -16z
m1239 -39 c87 -31 168 -58 181 -61 15 -4 22 -13 22 -29 0 -47 -2 -46 -305 85
-38 16 -71 37 -73 45 -2 9 1 16 7 16 5 0 81 -25 168 -56z m408 39 c40 -13 46
-18 30 -24 -11 -4 -39 -8 -61 -8 -39 -1 -41 1 -36 24 5 30 5 30 67 8z m-1425
-32 c47 -5 116 -13 154 -16 92 -9 73 -23 -42 -31 -51 -4 -92 -11 -92 -15 0 -5
16 -9 35 -9 50 0 189 -21 199 -30 4 -5 -27 -11 -70 -15 -169 -15 -133 -23 96
-23 l235 1 -82 15 c-46 8 -83 18 -83 23 0 4 44 10 98 13 53 4 126 10 162 14
l65 8 -115 13 c-166 20 -172 26 -35 40 66 7 142 16 168 22 53 10 107 12 107 4
0 -31 -80 -140 -141 -192 -114 -97 -199 -128 -354 -127 -123 1 -190 20 -276
75 -83 53 -209 202 -209 247 0 5 21 5 48 1 26 -4 85 -12 132 -18z m-205 -11
c-4 -7 -273 -194 -322 -223 -8 -5 -20 7 -33 34 -12 22 -20 42 -18 44 3 3 79
35 224 95 50 21 100 42 110 48 24 14 47 15 39 2z m1126 -26 c178 -75 274 -117
277 -119 8 -7 -32 -86 -42 -82 -6 3 -82 52 -168 111 -204 138 -215 153 -67 90z
m-1091 -28 c0 -6 -35 -34 -78 -62 -269 -179 -265 -177 -276 -149 -4 11 28 38
112 94 64 43 139 95 166 115 38 26 53 33 63 24 7 -6 13 -16 13 -22z m1124 -62
c67 -46 138 -95 158 -109 24 -16 35 -31 31 -40 -3 -8 -9 -15 -15 -15 -7 0
-318 199 -336 215 -9 8 20 45 30 39 7 -4 66 -45 132 -90z m-1671 69 c3 -5 8
-22 11 -39 l7 -31 -52 11 -51 10 33 28 c35 29 45 33 52 21z m2108 -20 l32 -27
-24 -6 c-86 -23 -81 -24 -74 12 13 58 19 60 66 21z m-1541 -23 c0 -16 -303
-251 -319 -248 -30 6 -24 42 11 63 18 10 94 58 168 107 74 48 136 88 138 88 1
0 2 -4 2 -10z m1117 -114 c135 -86 152 -100 143 -116 -6 -11 -14 -21 -18 -24
-10 -6 -322 241 -322 256 0 6 9 4 23 -4 12 -8 91 -59 174 -112z m-1074 66 c19
-20 31 -3 -183 -246 -74 -84 -75 -84 -95 -65 -19 19 -19 20 65 104 46 46 81
87 78 90 -3 3 -41 -30 -84 -75 -44 -44 -84 -80 -91 -80 -10 0 -33 29 -33 43 0
2 25 24 56 48 30 24 99 79 152 121 53 43 102 78 108 78 6 0 18 -8 27 -18z
m911 -14 c132 -103 266 -211 266 -215 0 -12 -22 -43 -31 -43 -6 0 -47 36 -91
81 -43 44 -82 78 -86 75 -3 -4 32 -45 78 -91 84 -84 84 -84 65 -105 -17 -19
-21 -19 -30 -6 -7 8 -63 72 -126 141 -127 141 -138 157 -119 180 18 21 27 19
74 -17z m-1474 -32 c0 -6 -28 -21 -62 -33 l-63 -22 50 44 c37 31 53 40 63 33
6 -6 12 -16 12 -22z m2063 -31 c41 -26 29 -27 -38 -3 -74 27 -69 22 -55 48
l12 22 26 -25 c15 -13 40 -32 55 -42z m-1447 20 c4 -8 -9 -33 -30 -57 -20 -24
-66 -79 -103 -123 -38 -44 -81 -96 -96 -114 -28 -34 -29 -34 -48 -15 -19 20
-18 21 103 159 67 77 127 145 133 152 14 17 34 16 41 -2z m894 -140 c129 -148
130 -149 111 -169 -19 -19 -20 -19 -48 14 -15 18 -34 42 -41 52 -8 10 -25 31
-39 46 -30 32 -135 161 -147 180 -10 16 2 34 20 30 8 -2 72 -70 144 -153z
m-844 102 c2 -7 -21 -60 -52 -117 -32 -58 -74 -136 -95 -175 -40 -74 -51 -84
-74 -65 -11 9 -3 28 46 111 32 56 59 102 59 105 0 2 16 28 35 58 19 30 35 59
35 64 0 10 21 32 32 32 5 0 11 -6 14 -13z m693 -53 c153 -261 168 -289 159
-301 -6 -7 -16 -13 -23 -13 -17 0 -209 356 -200 370 12 19 29 5 64 -56z m627
-7 c3 -10 4 -20 2 -22 -5 -6 -78 14 -78 21 0 3 7 19 16 36 l16 31 19 -24 c10
-13 21 -32 25 -42z m-1952 24 l15 -29 -39 -10 c-45 -11 -49 -5 -23 39 22 36
29 36 47 0z m76 -128 c0 -7 -6 -13 -14 -13 -8 0 -33 -9 -57 -20 -72 -32 -76
-23 -19 35 l55 55 17 -22 c10 -13 18 -29 18 -35z m1835 -3 c27 -27 44 -50 36
-50 -14 0 -112 39 -124 50 -10 9 13 50 28 50 6 0 33 -22 60 -50z m-1475 -69
c-28 -50 -55 -91 -60 -91 -4 0 -13 6 -19 13 -8 10 5 32 56 95 37 44 69 79 71
77 2 -2 -19 -45 -48 -94z m1044 15 c51 -61 63 -82 55 -93 -6 -7 -14 -13 -18
-13 -8 0 -111 172 -111 185 0 10 -4 15 74 -79z m-1367 -18 c-16 -10 -21 -2
-13 19 6 15 9 15 16 3 6 -9 5 -17 -3 -22z m1683 7 c0 -9 -6 -12 -15 -9 -8 4
-15 10 -15 15 0 5 7 9 15 9 8 0 15 -7 15 -15z m-1601 -71 c12 -15 21 -30 21
-34 0 -10 -110 -73 -116 -67 -6 6 58 127 67 127 4 0 17 -12 28 -26z m1570 -35
c18 -34 30 -63 28 -66 -7 -6 -117 57 -117 67 0 11 40 60 49 60 4 0 22 -28 40
-61z"/>
<path d="M2143 2423 c15 -2 37 -2 50 0 12 2 0 4 -28 4 -27 0 -38 -2 -22 -4z"/>
</g>
</svg>
